<svg width="422" height="303" viewBox="0 0 422 303" fill="none" xmlns="http://www.w3.org/2000/svg">
<path d="M85.6805 60.0996C95.1578 57.426 103.151 56.7108 109.661 57.9538C116.17 59.1969 121.605 61.7365 125.965 65.5726C130.326 69.4087 133.809 74.1874 136.417 79.9086C139.116 85.604 141.335 91.5341 143.074 97.6989C144.969 104.416 145.886 111.011 145.825 117.485C145.856 123.934 144.713 129.918 142.397 135.439C140.146 140.842 136.637 145.656 131.869 149.882C127.075 154.016 120.859 157.16 113.222 159.315C107.149 161.028 102.143 161.943 98.2027 162.062C94.3806 162.246 91.2108 161.749 88.6933 160.572C86.2678 159.369 84.3567 157.524 82.9598 155.037C81.563 152.551 80.3584 149.513 79.3461 145.924L64.7063 94.0291C63.5902 90.0725 62.8999 86.3932 62.6355 82.991C62.4631 79.5629 63.0776 76.4591 64.4789 73.6798C65.8542 70.8084 68.2135 68.2555 71.5565 66.021C74.9916 63.7606 79.6996 61.7868 85.6805 60.0996ZM110.295 145.24C116 143.631 120.407 141.295 123.516 138.232C126.692 135.052 128.903 131.448 130.151 127.42C131.399 123.393 131.827 119.1 131.435 114.542C131.135 109.957 130.35 105.411 129.078 100.902C127.91 96.7618 126.42 92.7121 124.607 88.7532C122.769 84.7023 120.358 81.2601 117.373 78.4267C114.388 75.5932 110.711 73.6505 106.342 72.5984C101.972 71.5464 96.659 71.9029 90.4021 73.668C84.6973 75.2773 80.9744 77.2216 79.2333 79.5008C77.4922 81.78 77.1019 84.6218 78.0623 88.0263L92.9746 140.888C93.7792 143.74 95.4014 145.617 97.841 146.518C100.347 147.301 104.498 146.875 110.295 145.24Z" fill="#0A3351"/>
<path d="M140.985 204.669C137.699 205.305 134.181 205.741 130.429 205.98C126.754 206.106 122.64 205.733 118.09 204.86C120.042 210.423 123.223 214.287 127.634 216.453C132.139 218.6 138.052 218.966 145.374 217.551C148.002 217.042 150.322 216.448 152.332 215.767C154.419 214.974 156.223 214.236 157.746 213.552C159.251 212.774 160.587 212.126 161.753 211.609C162.9 210.997 163.99 210.592 165.023 210.392C166.337 210.138 167.686 210.315 169.069 210.924C170.435 211.439 171.299 212.635 171.662 214.513C172.116 216.859 171.502 218.974 169.821 220.857C168.235 222.722 166.124 224.396 163.489 225.879C160.931 227.25 158.13 228.376 155.087 229.256C152.062 230.231 149.376 230.945 147.029 231.399C141.491 232.469 136.23 232.708 131.246 232.113C126.357 231.501 121.932 230.019 117.972 227.669C113.994 225.225 110.63 221.931 107.882 217.789C105.134 213.646 103.179 208.571 102.017 202.564C100.892 196.744 100.785 191.409 101.698 186.559C102.704 181.69 104.503 177.398 107.096 173.684C109.688 169.969 112.989 166.897 116.998 164.466C121.101 162.017 125.687 160.303 130.756 159.323C134.699 158.561 138.6 158.342 142.46 158.667C146.415 158.973 149.999 159.887 153.215 161.407C156.524 162.91 159.332 165.093 161.638 167.958C164.021 170.711 165.62 174.199 166.437 178.423C167.163 182.178 167.076 185.505 166.176 188.406C165.276 191.306 163.667 193.808 161.347 195.912C159.121 197.998 156.25 199.77 152.735 201.229C149.313 202.67 145.396 203.816 140.985 204.669ZM133.683 172.195C131.149 172.685 128.772 173.485 126.552 174.596C124.314 175.613 122.346 177.016 120.647 178.805C119.024 180.482 117.773 182.574 116.894 185.081C115.998 187.494 115.632 190.388 115.798 193.764C119.674 194.671 123.365 195.125 126.871 195.129C130.359 195.039 133.98 194.631 137.735 193.905C143.273 192.834 147.229 191.388 149.603 189.565C152.053 187.631 152.933 184.88 152.243 181.313C151.608 178.028 149.787 175.41 146.781 173.46C143.869 171.491 139.503 171.069 133.683 172.195Z" fill="#0A3351"/>
<path d="M177.968 217.296C177.585 213.95 177.346 209.887 177.251 205.107C177.155 200.326 177.107 194.542 177.107 187.754C177.107 181.062 177.107 175.66 177.107 171.549C177.203 167.438 177.49 163.805 177.968 160.651C178.446 156.731 179.163 154.197 180.119 153.05C181.17 151.903 182.509 151.329 184.134 151.329C185.281 151.329 186.285 151.425 187.146 151.616C188.102 151.807 188.914 152.237 189.584 152.907C190.349 153.48 190.922 154.341 191.305 155.488C191.687 156.635 191.878 158.213 191.878 160.22C191.878 160.603 191.926 160.985 192.022 161.368C192.022 161.75 192.022 162.18 192.022 162.658C192.117 163.041 192.165 163.519 192.165 164.092C194.746 160.842 197.662 158.069 200.913 155.775C204.259 153.48 208.035 152.333 212.242 152.333C217.883 152.333 220.703 154.675 220.703 159.36C220.703 161.081 220.32 162.515 219.556 163.662C218.886 164.809 217.883 165.765 216.544 166.53C215.301 167.199 213.819 167.725 212.098 168.108C210.473 168.49 208.657 168.873 206.649 169.255C203.59 169.829 200.722 170.928 198.045 172.553C195.368 174.083 193.551 176.043 192.595 178.433C192.595 180.249 192.595 181.588 192.595 182.448C192.691 183.309 192.739 184.026 192.739 184.599C192.834 185.173 192.882 185.794 192.882 186.464C192.882 187.133 192.882 188.185 192.882 189.619C192.882 194.494 192.786 199.083 192.595 203.386C192.404 207.592 192.213 212.181 192.022 217.153C191.926 219.447 191.639 221.216 191.161 222.459C190.779 223.702 190.253 224.658 189.584 225.327C189.01 225.996 188.341 226.378 187.576 226.474C186.811 226.665 186.046 226.761 185.281 226.761C182.605 226.761 180.788 226.187 179.832 225.04C178.972 223.797 178.35 221.216 177.968 217.296Z" fill="#0A3351"/>
<path d="M249.814 206.827C246.468 206.827 242.931 206.588 239.202 206.11C235.569 205.537 231.602 204.39 227.299 202.669C228.16 208.501 230.55 212.898 234.47 215.862C238.485 218.826 244.221 220.308 251.678 220.308C254.355 220.308 256.745 220.164 258.849 219.877C261.048 219.495 262.96 219.113 264.585 218.73C266.21 218.252 267.644 217.87 268.887 217.583C270.13 217.201 271.277 217.009 272.329 217.009C273.667 217.009 274.958 217.44 276.201 218.3C277.444 219.065 278.065 220.403 278.065 222.315C278.065 224.705 277.061 226.665 275.054 228.195C273.142 229.725 270.751 230.968 267.883 231.924C265.111 232.784 262.147 233.358 258.992 233.644C255.837 234.027 253.065 234.218 250.675 234.218C245.034 234.218 239.823 233.453 235.043 231.924C230.359 230.394 226.295 228.099 222.854 225.04C219.412 221.885 216.735 218.013 214.823 213.424C212.911 208.835 211.955 203.481 211.955 197.363C211.955 191.435 212.863 186.177 214.68 181.588C216.592 176.999 219.173 173.127 222.424 169.972C225.674 166.817 229.498 164.427 233.896 162.802C238.389 161.176 243.217 160.364 248.38 160.364C252.395 160.364 256.267 160.89 259.996 161.941C263.82 162.993 267.166 164.57 270.034 166.674C272.998 168.777 275.34 171.454 277.061 174.704C278.878 177.859 279.786 181.588 279.786 185.89C279.786 189.714 279.069 192.965 277.635 195.642C276.201 198.319 274.145 200.47 271.469 202.095C268.887 203.72 265.732 204.915 262.004 205.68C258.371 206.445 254.308 206.827 249.814 206.827ZM248.81 173.557C246.229 173.557 243.743 173.892 241.353 174.561C238.963 175.135 236.764 176.138 234.756 177.573C232.844 178.911 231.219 180.727 229.881 183.022C228.542 185.221 227.634 187.993 227.156 191.34C230.789 192.965 234.326 194.112 237.768 194.781C241.21 195.355 244.843 195.642 248.667 195.642C254.308 195.642 258.466 194.973 261.143 193.634C263.916 192.2 265.302 189.666 265.302 186.034C265.302 182.687 264.011 179.771 261.43 177.286C258.944 174.8 254.738 173.557 248.81 173.557Z" fill="#0A3351"/>
<path d="M284.246 230.403C284.695 226.889 285.23 222.905 285.852 218.45C286.584 213.919 287.442 208.974 288.423 203.613C289.646 196.936 290.735 191.256 291.69 186.571C292.663 181.792 293.612 177.932 294.54 174.992C295.578 171.975 296.697 169.847 297.896 168.609C299.112 167.276 300.566 166.765 302.259 167.075C303.857 167.368 305.165 168.19 306.181 169.543C307.196 170.895 307.454 173.469 306.953 177.265C305.709 187.243 304.243 196.84 302.555 206.056C301.694 210.758 300.79 215.16 299.845 219.264C298.916 223.273 297.91 227.705 296.826 232.561C296.319 234.801 295.765 236.497 295.165 237.651C294.659 238.822 294.063 239.685 293.379 240.24C292.694 240.795 291.967 241.05 291.197 241.007C290.504 241.074 289.688 241.022 288.747 240.85C287.055 240.54 285.747 239.717 284.826 238.382C283.921 236.953 283.728 234.293 284.246 230.403Z" fill="#0A3351"/>
<path d="M357.894 258.632C356.465 258.085 355.39 257.417 354.669 256.629C354.07 255.785 353.702 254.876 353.563 253.902C353.425 252.927 353.471 251.87 353.703 250.731C353.969 249.502 354.297 248.245 354.686 246.961C351.394 248.874 347.604 250.083 343.314 250.59C339.114 251.131 334.291 250.359 328.845 248.272C325.363 246.939 321.98 245.08 318.696 242.695C315.536 240.256 312.961 237.222 310.972 233.594C309.018 229.876 307.924 225.516 307.691 220.512C307.458 215.508 308.589 209.748 311.086 203.231C313.035 198.142 315.49 193.605 318.45 189.62C321.41 185.635 324.772 182.469 328.537 180.124C332.426 177.723 336.666 176.276 341.257 175.782C345.849 175.289 350.733 176.034 355.912 178.017C360.465 179.762 364.202 182.166 367.123 185.23C370.079 188.205 372.267 192.115 373.687 196.959C374.098 195.887 374.553 194.833 375.052 193.796C375.586 192.669 376.203 191.728 376.902 190.972C377.725 190.161 378.685 189.659 379.783 189.465C380.915 189.182 382.24 189.331 383.758 189.913C385.097 190.426 386.141 191.44 386.892 192.956C387.642 194.472 387.422 197.05 386.233 200.689C384.688 205.524 383.242 209.833 381.895 213.617C380.637 217.435 379.239 221.353 377.7 225.37C375.819 230.28 374.047 234.772 372.385 238.844C370.722 242.917 368.823 247.206 366.688 251.712C365.723 253.697 364.822 255.246 363.986 256.359C363.274 257.417 362.575 258.173 361.889 258.627C361.237 258.992 360.565 259.143 359.871 259.083C359.178 259.022 358.519 258.872 357.894 258.632ZM363.693 221.847C365.471 217.205 366.21 213.137 365.91 209.643C365.7 206.184 364.831 203.241 363.304 200.813C361.9 198.33 360.113 196.314 357.942 194.766C355.771 193.218 353.658 192.05 351.605 191.264C348.391 190.033 345.401 189.553 342.635 189.824C339.959 190.13 337.513 191.036 335.298 192.542C333.117 193.959 331.139 195.914 329.365 198.408C327.714 200.847 326.273 203.674 325.042 206.888C322.032 214.744 321.506 221.197 323.462 226.246C325.507 231.33 329.476 235 335.368 237.257C338.85 238.591 342.019 239.139 344.874 238.902C347.852 238.61 350.494 237.728 352.798 236.256C355.192 234.818 357.276 232.852 359.05 230.358C360.948 227.809 362.496 224.972 363.693 221.847Z" fill="#0A3351"/>
<path d="M55.7057 181.115C57.5513 180.325 59.9555 179.503 62.9184 178.65C65.8436 177.71 68.7687 177.133 71.6937 176.92C74.5811 176.62 77.2675 176.822 79.7529 177.525C82.2383 178.229 83.9702 179.723 84.9488 182.008C85.5133 183.327 85.6071 184.638 85.2301 185.944C84.941 187.212 84.0055 188.184 82.4236 188.862C81.2811 189.351 79.8875 189.74 78.2429 190.028C76.6862 190.279 74.9349 190.561 72.9891 190.874C71.0934 191.062 69.0597 191.413 66.8878 191.927C64.8038 192.403 62.6632 193.112 60.4661 194.053C56.7749 195.633 53.9875 197.503 52.1039 199.662C50.3081 201.783 49.9372 204.074 50.991 206.534C51.5931 207.941 52.4967 208.958 53.7016 209.586C54.9945 210.176 56.5133 210.566 58.2582 210.754C60.0533 210.818 62.0305 210.699 64.1898 210.398C66.437 210.06 68.772 209.684 71.195 209.271C74.2205 208.807 77.2397 208.45 80.2526 208.2C83.3534 207.912 86.2971 208.107 89.0838 208.786C91.8328 209.377 94.3746 210.576 96.709 212.385C99.0058 214.105 100.888 216.679 102.356 220.107C105.141 226.61 104.901 232.849 101.635 238.824C98.3318 244.71 91.8904 249.705 82.311 253.807C80.2017 254.71 77.6217 255.607 74.571 256.498C71.5579 257.476 68.5888 258.071 65.6638 258.284C62.7764 258.584 60.09 258.383 57.6047 257.679C55.1695 256.85 53.4062 255.161 52.3148 252.612C51.5621 250.855 51.3931 249.367 51.8077 248.149C52.2725 246.806 53.1202 245.871 54.3505 245.344C55.3173 244.93 56.4597 244.805 57.7777 244.969C59.0958 245.132 60.6524 245.246 62.4475 245.309C64.2427 245.372 66.3266 245.26 68.6992 244.972C71.0719 244.684 73.7963 243.881 76.8722 242.564C78.0147 242.075 79.49 241.391 81.2979 240.513C83.0682 239.547 84.7005 238.38 86.1948 237.012C87.7769 235.606 88.9573 234.113 89.7361 232.531C90.5651 230.824 90.5468 228.96 89.6812 226.938C89.0038 225.357 87.9998 224.226 86.6693 223.548C85.3012 222.782 83.7008 222.323 81.868 222.172C80.0353 222.021 77.9953 222.115 75.7481 222.453C73.5512 222.666 71.2225 222.935 68.7619 223.261C65.9122 223.649 62.9808 223.968 59.9679 224.218C57.0429 224.431 54.2247 224.286 51.5133 223.783C48.8019 223.28 46.3354 222.256 44.1139 220.712C41.8548 219.079 40.0477 216.681 38.6929 213.517C37.4133 210.529 36.8429 207.497 36.9819 204.421C37.0832 201.258 37.8624 198.22 39.3194 195.308C40.7765 192.396 42.8611 189.736 45.5733 187.326C48.3734 184.879 51.7509 182.809 55.7057 181.115Z" fill="#0A3351"/>
<path d="M185.281 67.293C190.73 67.293 195.606 68.1534 199.908 69.8743C204.211 71.4996 207.844 73.8419 210.807 76.9012C213.867 79.9606 216.209 83.6891 217.834 88.0869C219.459 92.4847 220.272 97.4083 220.272 102.858C220.272 108.881 219.316 114.283 217.404 119.063C215.587 123.843 213.006 127.906 209.66 131.252C206.409 134.598 202.49 137.18 197.901 138.996C193.407 140.813 188.484 141.721 183.13 141.721C177.298 141.721 172.135 140.717 167.642 138.709C163.244 136.702 159.516 133.977 156.456 130.535C153.493 127.093 151.246 123.126 149.716 118.633C148.186 114.139 147.422 109.407 147.422 104.435C147.422 98.9858 148.282 94.0144 150.003 89.521C151.819 84.932 154.353 81.0122 157.603 77.7617C160.95 74.4155 164.965 71.8342 169.65 70.0177C174.334 68.2012 179.545 67.293 185.281 67.293ZM183.703 128.528C187.623 128.528 190.969 127.858 193.742 126.52C196.514 125.086 198.761 123.222 200.482 120.927C202.298 118.633 203.589 116.051 204.354 113.183C205.214 110.219 205.645 107.16 205.645 104.005C205.645 100.754 205.214 97.743 204.354 94.9704C203.589 92.1023 202.346 89.6166 200.625 87.5133C199 85.41 196.849 83.7847 194.172 82.6375C191.591 81.3946 188.484 80.7732 184.851 80.7732C181.122 80.7732 177.872 81.3946 175.099 82.6375C172.327 83.8803 169.984 85.6012 168.072 87.8001C166.256 89.9034 164.869 92.4369 163.913 95.4007C162.957 98.3644 162.479 101.567 162.479 105.009C162.479 111.988 164.248 117.676 167.785 122.074C171.418 126.376 176.724 128.528 183.703 128.528Z" fill="#0A3351"/>
<path d="M269.197 76.787C271.925 77.2788 274.611 78.0058 277.255 78.9681C279.993 79.9473 282.415 81.0638 284.52 82.3176C286.626 83.5715 288.274 84.9371 289.465 86.4147C290.656 87.8922 291.107 89.4307 290.819 91.0302C290.072 95.1701 287.347 96.8161 282.643 95.9681C281.514 95.7646 280.457 95.4284 279.473 94.9596C278.6 94.4136 277.53 93.8808 276.264 93.3611C275.014 92.7473 273.427 92.1212 271.502 91.4828C269.594 90.7503 267.182 90.1212 264.265 89.5955C258.055 88.4762 252.875 89.7282 248.725 93.3516C244.575 96.9751 241.889 102.174 240.668 108.948C239.328 116.381 239.945 122.661 242.518 127.788C245.185 132.932 249.671 136.072 255.974 137.208C259.926 137.92 263.184 138.167 265.749 137.95C268.314 137.732 270.426 137.336 272.084 136.76C273.836 136.202 275.242 135.678 276.302 135.189C277.455 134.717 278.644 134.591 279.867 134.811C281.56 135.117 282.81 135.731 283.615 136.653C284.531 137.498 284.794 139.003 284.404 141.167C283.997 143.425 282.747 145.239 280.654 146.611C278.656 147.999 276.237 149.02 273.399 149.675C270.561 150.329 267.539 150.658 264.332 150.663C261.22 150.685 258.393 150.467 255.853 150.009C244.468 147.957 236.098 143.194 230.742 135.72C225.386 128.246 223.751 118.722 225.837 107.149C226.736 102.163 228.337 97.594 230.639 93.4432C233.053 89.2153 236.117 85.6876 239.833 82.8601C243.548 80.0326 247.842 78.0379 252.715 76.8761C257.681 75.7313 263.175 75.7016 269.197 76.787Z" fill="#0A3351"/>
<path d="M311.714 156.81C311.714 160.873 308.42 164.167 304.357 164.167C300.294 164.167 297 160.873 297 156.81C297 152.746 300.294 147 304.357 147C308.42 147 311.714 152.746 311.714 156.81Z" fill="#E8708B"/>
<path d="M344.653 118.554C341.172 118.131 337.522 117.433 333.702 116.458C329.993 115.395 326.007 113.685 321.744 111.329C321.92 117.58 323.864 122.514 327.576 126.131C331.388 129.76 337.173 132.045 344.931 132.987C347.715 133.326 350.219 133.477 352.443 133.44C354.778 133.315 356.814 133.154 358.552 132.957C360.302 132.659 361.841 132.437 363.169 132.292C364.509 132.046 365.726 131.99 366.82 132.123C368.212 132.292 369.502 132.908 370.689 133.971C371.888 134.934 372.369 136.422 372.133 138.436C371.839 140.953 370.553 142.891 368.275 144.248C366.098 145.618 363.458 146.625 360.356 147.269C357.366 147.825 352.327 156.721 349.597 150.548C345.154 140.499 342.759 163.398 336.891 162.685C331.023 161.973 331.076 138.925 328.518 142.99C321.58 154.018 313.656 146.842 314.682 131.548C315.018 126.534 307.82 143.359 304.883 124.478C304.073 119.267 305.681 110.247 306.435 103.802C307.166 97.5591 308.759 92.1356 311.215 87.5318C313.77 82.9401 316.933 79.1881 320.703 76.2759C324.474 73.3637 328.747 71.3295 333.523 70.1733C338.397 69.0292 343.52 68.7833 348.891 69.4356C353.068 69.9429 357.031 70.9859 360.781 72.5647C364.629 74.1555 367.916 76.2397 370.64 78.8173C373.464 81.407 375.571 84.5224 376.96 88.1634C378.461 91.7158 378.946 95.7576 378.415 100.289C377.944 104.317 376.797 107.65 374.975 110.288C373.153 112.926 370.749 114.932 367.764 116.306C364.878 117.691 361.449 118.551 357.476 118.886C353.602 119.232 349.328 119.122 344.653 118.554ZM347.712 83.3857C345.026 83.0596 342.399 83.098 339.83 83.5009C337.273 83.8031 334.862 84.5825 332.596 85.8393C330.442 87.0074 328.527 88.7153 326.852 90.9628C325.188 93.1097 323.902 95.915 322.992 99.3789C326.571 101.55 330.109 103.205 333.607 104.345C337.117 105.384 340.861 106.145 344.839 106.628C350.707 107.341 355.116 107.161 358.066 106.09C361.127 104.93 362.882 102.436 363.33 98.6099C363.742 95.0857 362.759 91.8514 360.38 88.9072C358.101 85.9751 353.878 84.1346 347.712 83.3857Z" fill="#E8708B" stroke="#E8708B" stroke-width="3.58516"/>
<path d="M404.865 23.99L342.524 68.146C341.262 69.04 341.629 71.0817 343.07 71.6442C355.895 76.652 368.94 91.2898 375.684 100.484C376.54 101.65 378.373 101.434 378.896 100.085L407.573 26.1007C408.215 24.4442 406.315 22.9631 404.865 23.99Z" fill="#E0A678" stroke="#FBBC91" stroke-width="3.58516"/>
<path d="M385.054 52.5606L386.943 74.653L362.226 81.5658L362.677 56.2189L385.054 52.5606ZM385.054 52.5606L387.62 36.6327M385.054 52.5606L400.638 45.9923" stroke="#FBBC91" stroke-width="3.58516"/>
</svg>
