<svg width="780" height="191" viewBox="0 0 780 191" fill="none" xmlns="http://www.w3.org/2000/svg">
<path d="M35.6551 52.5419C44.894 52.5419 52.2941 53.9322 57.8554 56.7129C63.4167 59.4935 67.6774 63.1712 70.6374 67.7458C73.5975 72.3204 75.526 77.5229 76.423 83.3533C77.4097 89.1837 77.903 95.1038 77.903 101.114C77.903 107.662 77.0509 113.851 75.3466 119.681C73.732 125.512 71.1756 130.624 67.6774 135.02C64.2689 139.325 59.8736 142.778 54.4917 145.38C49.1098 147.891 42.6964 149.147 35.2514 149.147C29.3314 149.147 24.5773 148.699 20.9894 147.802C17.4912 146.994 14.7554 145.738 12.782 144.034C10.8983 142.33 9.64257 140.177 9.01468 137.576C8.38679 134.975 8.07285 131.925 8.07285 128.427V77.8368C8.07285 73.9798 8.38679 70.4816 9.01468 67.3421C9.73227 64.2027 11.0777 61.5566 13.0511 59.4038C15.0245 57.1614 17.8051 55.4571 21.3931 54.291C25.0707 53.1249 29.8247 52.5419 35.6551 52.5419ZM36.1933 135.692C41.7546 135.692 46.3292 134.706 49.9171 132.732C53.5948 130.669 56.51 127.978 58.6627 124.659C60.8155 121.341 62.2955 117.573 63.1028 113.357C63.9998 109.142 64.4483 104.836 64.4483 100.441C64.4483 96.4044 64.1343 92.368 63.5064 88.3315C62.8785 84.2054 61.5779 80.4829 59.6045 77.1641C57.6312 73.8453 54.8057 71.1543 51.1281 69.0912C47.4504 67.0282 42.5619 65.9967 36.4624 65.9967C30.9011 65.9967 27.044 66.8039 24.8913 68.4185C22.7385 70.0331 21.6621 72.4998 21.6621 75.8186V127.35C21.6621 130.131 22.6488 132.239 24.6222 133.674C26.6853 135.02 30.5423 135.692 36.1933 135.692ZM122.592 79.4514C127.705 79.4514 132.279 80.2587 136.316 81.8733C140.352 83.3981 143.761 85.5957 146.541 88.4661C149.412 91.3364 151.609 94.8347 153.134 98.9608C154.659 103.087 155.421 107.706 155.421 112.819C155.421 118.47 154.524 123.538 152.73 128.023C151.026 132.508 148.604 136.32 145.465 139.46C142.415 142.599 138.737 145.021 134.432 146.725C130.216 148.429 125.597 149.282 120.573 149.282C115.102 149.282 110.258 148.34 106.042 146.456C101.916 144.572 98.418 142.016 95.5476 138.787C92.767 135.558 90.6591 131.835 89.2239 127.619C87.7887 123.404 87.0712 118.964 87.0712 114.299C87.0712 109.186 87.8784 104.522 89.493 100.306C91.1973 96.0008 93.5743 92.3231 96.624 89.2734C99.7635 86.1339 103.531 83.7121 107.926 82.0078C112.321 80.3035 117.21 79.4514 122.592 79.4514ZM121.112 136.903C124.789 136.903 127.929 136.275 130.53 135.02C133.131 133.674 135.239 131.925 136.854 129.772C138.558 127.619 139.769 125.198 140.487 122.507C141.294 119.726 141.697 116.856 141.697 113.896C141.697 110.846 141.294 108.02 140.487 105.419C139.769 102.728 138.603 100.396 136.988 98.4226C135.463 96.4492 133.445 94.9244 130.934 93.848C128.512 92.6819 125.597 92.0989 122.188 92.0989C118.69 92.0989 115.64 92.6819 113.039 93.848C110.438 95.0141 108.24 96.6286 106.446 98.6917C104.742 100.665 103.441 103.042 102.544 105.823C101.647 108.603 101.199 111.608 101.199 114.837C101.199 121.385 102.858 126.722 106.177 130.849C109.585 134.885 114.564 136.903 121.112 136.903ZM199.448 79.0478C202.049 79.0478 204.65 79.272 207.252 79.7205C209.942 80.169 212.364 80.7969 214.517 81.6042C216.67 82.4115 218.419 83.3981 219.764 84.5642C221.11 85.7303 221.783 87.0758 221.783 88.6006C221.783 92.5474 219.54 94.5207 215.055 94.5207C213.979 94.5207 212.947 94.3862 211.961 94.1171C211.064 93.7583 209.987 93.4443 208.732 93.1753C207.476 92.8165 205.906 92.5025 204.022 92.2334C202.139 91.8746 199.807 91.6952 197.026 91.6952C191.106 91.6952 186.531 93.7134 183.302 97.7499C180.073 101.786 178.458 107.034 178.458 113.492C178.458 120.578 180.073 126.274 183.302 130.579C186.621 134.885 191.285 137.038 197.295 137.038C201.062 137.038 204.112 136.724 206.444 136.096C208.776 135.468 210.66 134.75 212.095 133.943C213.62 133.136 214.831 132.418 215.728 131.79C216.715 131.162 217.791 130.849 218.957 130.849C220.572 130.849 221.827 131.207 222.724 131.925C223.711 132.553 224.204 133.898 224.204 135.961C224.204 138.114 223.352 139.998 221.648 141.612C220.034 143.227 217.97 144.572 215.459 145.649C212.947 146.725 210.212 147.532 207.252 148.071C204.381 148.609 201.735 148.878 199.313 148.878C188.46 148.878 179.938 145.873 173.749 139.863C167.56 133.853 164.465 125.332 164.465 114.299C164.465 109.545 165.183 105.06 166.618 100.844C168.143 96.5389 170.385 92.7716 173.346 89.5425C176.306 86.3133 179.938 83.7569 184.244 81.8733C188.639 79.9896 193.707 79.0478 199.448 79.0478ZM371.804 77.4332C373.688 77.4332 376.065 77.6126 378.935 77.9714C381.806 78.2405 384.541 78.8235 387.143 79.7205C389.744 80.5278 391.986 81.6939 393.87 83.2187C395.754 84.7436 396.695 86.6721 396.695 89.0043C396.695 90.3498 396.292 91.5158 395.485 92.5025C394.767 93.4892 393.601 93.9825 391.986 93.9825C390.82 93.9825 389.475 93.8031 387.95 93.4443C386.515 93.0856 384.9 92.6819 383.106 92.2334C381.402 91.6952 379.518 91.2467 377.455 90.8879C375.482 90.5292 373.374 90.3498 371.131 90.3498C367.364 90.3498 364.269 90.9328 361.848 92.0989C359.515 93.265 358.349 95.1038 358.349 97.6153C358.349 99.0505 358.753 100.261 359.56 101.248C360.457 102.235 361.623 103.132 363.059 103.939C364.583 104.657 366.333 105.285 368.306 105.823C370.369 106.361 372.522 106.899 374.764 107.437C377.545 108.155 380.281 108.962 382.972 109.859C385.752 110.756 388.219 112.012 390.372 113.626C392.524 115.151 394.274 117.125 395.619 119.547C396.965 121.879 397.637 124.794 397.637 128.292C397.637 134.93 395.126 140.222 390.103 144.169C385.079 148.026 377.679 149.954 367.902 149.954C365.75 149.954 363.193 149.775 360.233 149.416C357.273 149.147 354.492 148.564 351.891 147.667C349.29 146.86 347.047 145.694 345.164 144.169C343.37 142.554 342.473 140.446 342.473 137.845C342.473 136.051 342.876 134.706 343.684 133.809C344.581 132.822 345.657 132.329 346.913 132.329C347.9 132.329 348.931 132.643 350.007 133.27C351.084 133.898 352.384 134.571 353.909 135.289C355.434 136.006 357.273 136.679 359.426 137.307C361.579 137.935 364.225 138.249 367.364 138.249C368.53 138.249 370.055 138.204 371.939 138.114C373.822 137.935 375.661 137.531 377.455 136.903C379.339 136.275 380.909 135.423 382.164 134.347C383.51 133.181 384.183 131.566 384.183 129.503C384.183 127.889 383.734 126.543 382.837 125.467C381.94 124.301 380.729 123.314 379.204 122.507C377.679 121.699 375.885 121.027 373.822 120.488C371.849 119.861 369.741 119.233 367.499 118.605C364.897 117.887 362.251 117.08 359.56 116.183C356.959 115.286 354.582 114.12 352.429 112.685C350.277 111.249 348.527 109.455 347.182 107.303C345.836 105.06 345.164 102.324 345.164 99.0953C345.164 96.0456 345.792 93.2201 347.047 90.6188C348.303 87.9279 350.097 85.5957 352.429 83.6224C354.761 81.649 357.542 80.1241 360.771 79.0478C364.09 77.9714 367.768 77.4332 371.804 77.4332ZM441.091 122.91C437.951 122.91 434.633 122.686 431.134 122.238C427.726 121.699 424.003 120.623 419.967 119.008C420.774 124.48 423.017 128.606 426.694 131.387C430.462 134.167 435.843 135.558 442.84 135.558C445.352 135.558 447.594 135.423 449.567 135.154C451.63 134.795 453.424 134.436 454.949 134.078C456.474 133.629 457.82 133.27 458.986 133.001C460.152 132.643 461.228 132.463 462.215 132.463C463.471 132.463 464.682 132.867 465.848 133.674C467.014 134.392 467.597 135.647 467.597 137.441C467.597 139.684 466.655 141.523 464.771 142.958C462.977 144.393 460.735 145.559 458.044 146.456C455.443 147.263 452.662 147.802 449.702 148.071C446.742 148.429 444.141 148.609 441.898 148.609C436.606 148.609 431.717 147.891 427.232 146.456C422.837 145.021 419.025 142.868 415.796 139.998C412.567 137.038 410.055 133.405 408.261 129.099C406.467 124.794 405.57 119.771 405.57 114.03C405.57 108.469 406.422 103.535 408.127 99.2299C409.921 94.9244 412.343 91.2916 415.392 88.3315C418.442 85.3715 422.03 83.129 426.156 81.6042C430.372 80.0793 434.902 79.3169 439.745 79.3169C443.513 79.3169 447.145 79.8102 450.644 80.7969C454.232 81.7836 457.371 83.2636 460.062 85.2369C462.843 87.2103 465.04 89.7219 466.655 92.7716C468.359 95.7317 469.211 99.2299 469.211 103.266C469.211 106.854 468.539 109.904 467.193 112.416C465.848 114.927 463.919 116.945 461.408 118.47C458.986 119.995 456.026 121.116 452.527 121.834C449.119 122.551 445.307 122.91 441.091 122.91ZM440.149 91.6952C437.727 91.6952 435.395 92.0092 433.153 92.6371C430.91 93.1753 428.847 94.1171 426.963 95.4626C425.169 96.7183 423.645 98.4226 422.389 100.575C421.133 102.638 420.281 105.24 419.832 108.379C423.241 109.904 426.56 110.98 429.789 111.608C433.018 112.146 436.427 112.416 440.014 112.416C445.307 112.416 449.209 111.788 451.72 110.532C454.321 109.186 455.622 106.809 455.622 103.401C455.622 100.261 454.411 97.5256 451.989 95.1935C449.657 92.8613 445.71 91.6952 440.149 91.6952ZM482.687 139.46C482.328 136.32 482.104 132.508 482.014 128.023C481.925 123.538 481.88 118.111 481.88 111.743C481.88 105.464 481.88 100.396 481.88 96.5389C481.969 92.6819 482.239 89.2734 482.687 86.3133C483.136 82.6357 483.808 80.2587 484.705 79.1823C485.692 78.1059 486.948 77.5677 488.473 77.5677C489.549 77.5677 490.491 77.6574 491.298 77.8368C492.195 78.0162 492.958 78.4199 493.585 79.0478C494.303 79.586 494.841 80.3932 495.2 81.4696C495.559 82.546 495.738 84.026 495.738 85.9097C495.738 86.2685 495.783 86.6273 495.873 86.9861C495.873 87.3449 495.873 87.7485 495.873 88.197C495.962 88.5558 496.007 89.0043 496.007 89.5425C498.429 86.4927 501.165 83.8915 504.215 81.7387C507.354 79.586 510.897 78.5096 514.844 78.5096C520.136 78.5096 522.782 80.7072 522.782 85.1024C522.782 86.717 522.423 88.0624 521.706 89.1388C521.078 90.2152 520.136 91.1122 518.88 91.8298C517.714 92.4577 516.324 92.951 514.709 93.3098C513.184 93.6686 511.48 94.0274 509.597 94.3862C506.726 94.9244 504.035 95.9559 501.524 97.4808C499.012 98.9159 497.308 100.755 496.411 102.997C496.411 104.701 496.411 105.957 496.411 106.765C496.501 107.572 496.545 108.245 496.545 108.783C496.635 109.321 496.68 109.904 496.68 110.532C496.68 111.16 496.68 112.146 496.68 113.492C496.68 118.067 496.59 122.372 496.411 126.408C496.232 130.355 496.052 134.661 495.873 139.325C495.783 141.478 495.514 143.137 495.065 144.303C494.707 145.469 494.213 146.366 493.585 146.994C493.047 147.622 492.419 147.981 491.702 148.071C490.984 148.25 490.267 148.34 489.549 148.34C487.037 148.34 485.333 147.802 484.436 146.725C483.629 145.559 483.046 143.137 482.687 139.46ZM563.813 122.91C560.673 122.91 557.355 122.686 553.856 122.238C550.448 121.699 546.725 120.623 542.689 119.008C543.496 124.48 545.739 128.606 549.416 131.387C553.184 134.167 558.566 135.558 565.562 135.558C568.074 135.558 570.316 135.423 572.289 135.154C574.352 134.795 576.146 134.436 577.671 134.078C579.196 133.629 580.542 133.27 581.708 133.001C582.874 132.643 583.95 132.463 584.937 132.463C586.193 132.463 587.404 132.867 588.57 133.674C589.736 134.392 590.319 135.647 590.319 137.441C590.319 139.684 589.377 141.523 587.493 142.958C585.699 144.393 583.457 145.559 580.766 146.456C578.165 147.263 575.384 147.802 572.424 148.071C569.464 148.429 566.863 148.609 564.62 148.609C559.328 148.609 554.439 147.891 549.955 146.456C545.559 145.021 541.747 142.868 538.518 139.998C535.289 137.038 532.777 133.405 530.983 129.099C529.189 124.794 528.292 119.771 528.292 114.03C528.292 108.469 529.144 103.535 530.849 99.2299C532.643 94.9244 535.065 91.2916 538.114 88.3315C541.164 85.3715 544.752 83.129 548.878 81.6042C553.094 80.0793 557.624 79.3169 562.467 79.3169C566.235 79.3169 569.868 79.8102 573.366 80.7969C576.954 81.7836 580.093 83.2636 582.784 85.2369C585.565 87.2103 587.762 89.7219 589.377 92.7716C591.081 95.7317 591.933 99.2299 591.933 103.266C591.933 106.854 591.261 109.904 589.915 112.416C588.57 114.927 586.641 116.945 584.13 118.47C581.708 119.995 578.748 121.116 575.249 121.834C571.841 122.551 568.029 122.91 563.813 122.91ZM562.871 91.6952C560.449 91.6952 558.117 92.0092 555.875 92.6371C553.632 93.1753 551.569 94.1171 549.685 95.4626C547.891 96.7183 546.367 98.4226 545.111 100.575C543.855 102.638 543.003 105.24 542.554 108.379C545.963 109.904 549.282 110.98 552.511 111.608C555.74 112.146 559.149 112.416 562.737 112.416C568.029 112.416 571.931 111.788 574.442 110.532C577.043 109.186 578.344 106.809 578.344 103.401C578.344 100.261 577.133 97.5256 574.711 95.1935C572.379 92.8613 568.432 91.6952 562.871 91.6952ZM605.678 139.325C605.499 136.006 605.319 132.239 605.14 128.023C605.05 123.718 605.005 119.008 605.005 113.896C605.005 107.527 605.05 102.1 605.14 97.6153C605.23 93.0407 605.454 89.3182 605.813 86.4479C606.261 83.4878 606.934 81.3351 607.831 79.9896C608.728 78.5544 609.984 77.8368 611.598 77.8368C613.123 77.8368 614.469 78.375 615.635 79.4514C616.801 80.5278 617.474 82.8599 617.653 86.4479C618.191 95.8662 618.46 104.971 618.46 113.761C618.46 118.246 618.371 122.462 618.191 126.408C618.012 130.266 617.832 134.526 617.653 139.19C617.563 141.343 617.339 143.003 616.98 144.169C616.711 145.335 616.307 146.232 615.769 146.86C615.231 147.488 614.603 147.846 613.886 147.936C613.258 148.115 612.495 148.205 611.598 148.205C609.984 148.205 608.638 147.667 607.562 146.591C606.486 145.425 605.858 143.003 605.678 139.325ZM611.733 53.4837C613.796 53.4837 615.68 54.291 617.384 55.9056C619.178 57.5202 620.075 59.4487 620.075 61.6911C620.075 63.8439 619.178 65.7276 617.384 67.3421C615.59 68.867 613.572 69.6294 611.329 69.6294C609.446 69.6294 607.652 68.867 605.947 67.3421C604.333 65.7276 603.525 63.7542 603.525 61.422C603.525 59.2693 604.333 57.4305 605.947 55.9056C607.652 54.291 609.58 53.4837 611.733 53.4837ZM690.253 148.205C688.818 148.205 687.652 147.981 686.755 147.532C685.947 146.994 685.319 146.322 684.871 145.514C684.422 144.707 684.109 143.765 683.929 142.689C683.75 141.523 683.615 140.312 683.525 139.056C681.283 141.837 678.368 144.169 674.78 146.052C671.282 147.936 666.797 148.878 661.325 148.878C657.827 148.878 654.239 148.385 650.561 147.398C646.973 146.322 643.699 144.528 640.739 142.016C637.779 139.415 635.357 135.961 633.474 131.656C631.59 127.35 630.648 121.924 630.648 115.376C630.648 110.263 631.276 105.464 632.532 100.979C633.788 96.4941 635.671 92.5922 638.183 89.2734C640.784 85.8648 644.013 83.1739 647.87 81.2005C651.727 79.2272 656.257 78.2405 661.46 78.2405C666.034 78.2405 670.116 79.0926 673.704 80.7969C677.291 82.4115 680.521 85.1024 683.391 88.8697C683.391 87.7934 683.436 86.717 683.525 85.6406C683.615 84.4745 683.839 83.443 684.198 82.546C684.647 81.5593 685.319 80.7969 686.216 80.2587C687.113 79.6308 688.324 79.3169 689.849 79.3169C691.195 79.3169 692.45 79.855 693.617 80.9314C694.783 82.0078 695.455 84.34 695.635 87.9279C695.904 92.6819 696.083 96.9426 696.173 100.71C696.352 104.477 696.442 108.379 696.442 112.416C696.442 117.349 696.397 121.879 696.307 126.005C696.218 130.131 695.994 134.526 695.635 139.19C695.455 141.254 695.186 142.913 694.827 144.169C694.558 145.335 694.2 146.232 693.751 146.86C693.303 147.398 692.764 147.757 692.137 147.936C691.509 148.115 690.881 148.205 690.253 148.205ZM682.987 114.03C682.987 109.366 682.27 105.554 680.835 102.594C679.489 99.6335 677.74 97.3462 675.587 95.7317C673.524 94.0274 671.282 92.8613 668.86 92.2334C666.438 91.6055 664.195 91.2916 662.132 91.2916C658.903 91.2916 656.123 91.8746 653.79 93.0407C651.548 94.2068 649.709 95.8214 648.274 97.8844C646.839 99.8578 645.762 102.235 645.045 105.015C644.417 107.706 644.103 110.666 644.103 113.896C644.103 121.789 645.807 127.619 649.216 131.387C652.714 135.154 657.423 137.038 663.343 137.038C666.842 137.038 669.802 136.455 672.223 135.289C674.735 134.033 676.753 132.373 678.278 130.31C679.893 128.247 681.059 125.825 681.776 123.045C682.584 120.174 682.987 117.17 682.987 114.03Z" fill="#0A3351"/>
<path d="M269.469 124.176C265.973 124.449 262.256 124.486 258.319 124.286C254.474 123.977 250.228 123.089 245.583 121.622C246.991 127.715 249.873 132.167 254.227 134.979C258.68 137.782 264.803 138.879 272.594 138.269C275.39 138.05 277.875 137.703 280.047 137.228C282.311 136.644 284.276 136.084 285.94 135.547C287.596 134.908 289.061 134.387 290.335 133.982C291.6 133.476 292.782 133.18 293.88 133.094C295.279 132.985 296.665 133.334 298.038 134.142C299.404 134.848 300.17 136.212 300.337 138.233C300.545 140.759 299.668 142.912 297.704 144.693C295.84 146.466 293.451 147.975 290.538 149.22C287.717 150.356 284.536 160.072 280.64 154.56C274.297 145.588 276.476 168.509 270.583 168.97C264.69 169.432 260.187 146.828 258.483 151.319C253.861 163.501 244.675 158.033 242.658 142.838C241.996 137.856 238.265 155.773 231.655 137.844C229.83 132.896 229.623 123.736 229.089 117.27C228.571 111.005 229.061 105.374 230.558 100.376C232.155 95.3693 234.514 91.0662 237.634 87.4661C240.755 83.8659 244.541 81.0272 248.994 78.9498C253.546 76.8647 258.52 75.6109 263.913 75.1887C268.108 74.8602 272.199 75.0992 276.187 75.9057C280.274 76.7043 283.907 78.0977 287.088 80.0859C290.368 82.0663 293.049 84.7038 295.13 87.9983C297.304 91.1839 298.578 95.0501 298.954 99.5968C299.288 103.638 298.822 107.132 297.558 110.079C296.293 113.025 294.334 115.466 291.679 117.403C289.124 119.332 285.932 120.853 282.104 121.966C278.375 123.072 274.163 123.808 269.469 124.176ZM265.515 89.0966C262.818 89.3078 260.25 89.8647 257.812 90.7675C255.365 91.5692 253.155 92.81 251.183 94.4898C249.302 96.0607 247.762 98.1133 246.564 100.648C245.358 103.081 244.651 106.085 244.444 109.661C248.382 111.081 252.177 112.004 255.832 112.43C259.478 112.755 263.298 112.761 267.293 112.448C273.187 111.987 277.473 110.939 280.153 109.306C282.924 107.563 284.151 104.773 283.834 100.933C283.542 97.3968 281.939 94.4207 279.025 92.0049C276.211 89.5812 271.707 88.6118 265.515 89.0966Z" fill="#E8708B" stroke="#E8708B" stroke-width="3.58516"/>
<path d="M309.799 19.5749L257.417 75.183C256.356 76.3089 257.119 78.2378 258.643 78.5045C272.206 80.878 287.886 92.6483 296.315 100.328C297.384 101.302 299.138 100.728 299.384 99.3019L312.87 21.1087C313.172 19.3579 311.017 18.2817 309.799 19.5749Z" fill="#E0A678" stroke="#FBBC91" stroke-width="3.58516"/>
<path d="M296.027 51.4978L302.246 72.781L279.383 84.4435L274.815 59.5075L296.027 51.4978ZM296.027 51.4978L295.394 35.3771M296.027 51.4978L310.005 41.9786" stroke="#FBBC91" stroke-width="3.58516"/>
<path d="M736 147.667C724.33 147.667 713.139 144.085 704.887 137.709C696.636 131.332 692 122.684 692 113.667C692 104.65 696.636 96.0016 704.887 89.6254C713.139 83.2491 724.33 79.667 736 79.667L736 113.667L736 147.667Z" fill="#0A3351"/>
<rect x="737" y="130.667" width="24" height="4" rx="2" transform="rotate(-180 737 130.667)" fill="white"/>
<rect x="737" y="115.667" width="24" height="4" rx="2" transform="rotate(-180 737 115.667)" fill="white"/>
<rect x="737" y="99.667" width="24" height="3" rx="1.5" transform="rotate(-180 737 99.667)" fill="white"/>
</svg>
