<svg width="906" height="690" viewBox="0 0 906 690" fill="none" xmlns="http://www.w3.org/2000/svg">
<path d="M59.5 365.137C59.5 411.994 26.5 425.424 0 429.994V689.994H906L905.5 428.494C855.5 420.878 851.885 385.234 851.5 371.494C850.5 335.766 841.015 308.408 795.5 292.494C724 267.494 751.5 180.994 728 138.174C707.766 101.304 672.5 35.1011 579.5 15.8067C486.5 -3.48768 474.5 -2.00615 393 3.99384C307.208 10.3098 235.54 47.8797 205.5 94.4939C147.5 184.494 174.5 222.222 153.5 263.494C136.639 296.63 59.5 285.994 59.5 365.137Z" fill="#28598C"/>
<path d="M450.5 392.5C316.9 388.9 266.167 259.667 257.5 195.5C255.166 184.764 286.299 183.179 288.494 183.016C288.476 183.005 288.478 183 288.5 183C288.659 183 288.65 183.004 288.494 183.016C290.405 184.168 523.157 246.837 648.5 175L651 189C639.833 258.333 584.1 396.1 450.5 392.5Z" fill="white"/>
<circle cx="291.5" cy="178.5" r="40.5" fill="#28598C"/>
<circle cx="40.5" cy="40.5" r="40.5" transform="matrix(-1 0 0 1 655 138)" fill="#28598C"/>
<circle cx="412.5" cy="208.5" r="42.5" fill="#28598C"/>
<circle cx="42.5" cy="42.5" r="42.5" transform="matrix(-1 0 0 1 536 166)" fill="#28598C"/>
<ellipse cx="334.5" cy="207.5" rx="38.5" ry="40.5" fill="#28598C"/>
<ellipse cx="38.5" cy="40.5" rx="38.5" ry="40.5" transform="matrix(-1 0 0 1 610 167)" fill="#28598C"/>
<path d="M348 36V51" stroke="white" stroke-width="4" stroke-linecap="round"/>
<path d="M305 90V105" stroke="white" stroke-width="4" stroke-linecap="round"/>
<path d="M267 135V150" stroke="white" stroke-width="4" stroke-linecap="round"/>
<path d="M216 213V228" stroke="white" stroke-width="4" stroke-linecap="round"/>
<path d="M263 285V300" stroke="white" stroke-width="4" stroke-linecap="round"/>
<path d="M209 112V127" stroke="white" stroke-width="4" stroke-linecap="round"/>
<path d="M363 132V147" stroke="white" stroke-width="4" stroke-linecap="round"/>
<path d="M407 88V103" stroke="white" stroke-width="4" stroke-linecap="round"/>
<path d="M500 88V103" stroke="white" stroke-width="4" stroke-linecap="round"/>
<path d="M559 36V51" stroke="white" stroke-width="4" stroke-linecap="round"/>
<path d="M544 132V147" stroke="white" stroke-width="4" stroke-linecap="round"/>
<path d="M601 90V105" stroke="white" stroke-width="4" stroke-linecap="round"/>
<path d="M640 135V150" stroke="white" stroke-width="4" stroke-linecap="round"/>
<path d="M698 112V127" stroke="white" stroke-width="4" stroke-linecap="round"/>
<path d="M692 212V227" stroke="white" stroke-width="4" stroke-linecap="round"/>
<path d="M644 285V300" stroke="white" stroke-width="4" stroke-linecap="round"/>
<path d="M733 303V318" stroke="white" stroke-width="4" stroke-linecap="round"/>
<path d="M632 392V407" stroke="white" stroke-width="4" stroke-linecap="round"/>
<path d="M730 429V444" stroke="white" stroke-width="4" stroke-linecap="round"/>
<path d="M857 454V469" stroke="white" stroke-width="4" stroke-linecap="round"/>
<path d="M786 563V578" stroke="white" stroke-width="4" stroke-linecap="round"/>
<path d="M650 521V536" stroke="white" stroke-width="4" stroke-linecap="round"/>
<path d="M551 451V466" stroke="white" stroke-width="4" stroke-linecap="round"/>
<path d="M355 451V466" stroke="white" stroke-width="4" stroke-linecap="round"/>
<path d="M274 392V407" stroke="white" stroke-width="4" stroke-linecap="round"/>
<path d="M257 521V536" stroke="white" stroke-width="4" stroke-linecap="round"/>
<path d="M121 562V577" stroke="white" stroke-width="4" stroke-linecap="round"/>
<path d="M50 454V469" stroke="white" stroke-width="4" stroke-linecap="round"/>
<path d="M177 428V443" stroke="white" stroke-width="4" stroke-linecap="round"/>
<path d="M174 303V318" stroke="white" stroke-width="4" stroke-linecap="round"/>
<path d="M645.287 179.003C645.308 177.279 643.881 175.967 642.242 176.001L611.491 176.636L579.624 176.667C577.986 176.669 576.501 178.046 576.676 179.876C577.086 184.157 579.194 188.932 580.579 192.051C582.362 196.064 584.928 199.689 588.129 202.72C591.33 205.751 595.103 208.128 599.233 209.717C603.363 211.307 607.769 212.077 612.2 211.986C616.631 211.895 621.002 210.943 625.063 209.185C629.123 207.426 632.796 204.895 635.869 201.735C638.942 198.574 641.356 194.847 642.972 190.763C644.457 187.011 645.24 183.027 645.287 179.003Z" fill="#28598C" stroke="white" stroke-width="4"/>
<path d="M428.384 193.799C429.819 198.24 431.881 202.291 434.473 205.711C437.064 209.131 440.146 211.869 443.566 213.729C446.991 215.591 450.677 216.529 454.405 216.452C458.134 216.375 461.778 215.286 465.123 213.284C468.463 211.285 471.43 208.422 473.878 204.898C476.325 201.374 478.219 197.241 479.47 192.745C480.631 188.572 481.222 184.146 481.222 179.682C481.222 177.982 479.816 176.67 478.17 176.703L453.623 177.21L428.185 177.037C426.524 177.026 425.072 178.406 425.196 180.194C425.521 184.892 427.228 190.224 428.384 193.799ZM428.384 193.799L430.285 193.185L428.384 193.799Z" fill="#28598C" stroke="white" stroke-width="4"/>
<path d="M261.642 180.67C261.622 178.945 263.049 177.634 264.688 177.667L295.439 178.302L327.306 178.333C328.944 178.335 330.429 179.712 330.254 181.542C329.844 185.823 327.736 190.598 326.351 193.717C324.568 197.73 322.002 201.355 318.801 204.386C315.6 207.417 311.827 209.794 307.697 211.384C303.567 212.973 299.161 213.744 294.73 213.652C290.299 213.561 285.928 212.609 281.867 210.851C277.806 209.092 274.134 206.561 271.061 203.401C267.988 200.241 265.574 196.513 263.958 192.43C262.473 188.677 261.689 184.693 261.642 180.67Z" fill="#28598C" stroke="white" stroke-width="4"/>
<path d="M565.253 179.697C565.297 177.97 563.884 176.641 562.246 176.655L530.219 176.918L497.04 176.565C495.405 176.547 493.898 177.906 494.057 179.742C494.427 184.043 496.562 188.853 497.96 191.985C499.763 196.024 502.384 199.68 505.668 202.745C508.952 205.811 512.835 208.226 517.093 209.86C521.351 211.493 525.903 212.313 530.492 212.275C535.08 212.237 539.618 211.342 543.848 209.639C548.079 207.936 551.921 205.457 555.154 202.338C558.388 199.219 560.949 195.521 562.685 191.452C564.281 187.712 565.151 183.73 565.253 179.697Z" fill="#28598C" stroke="white" stroke-width="4"/>
<path d="M344.275 177.655C342.636 177.641 341.224 178.97 341.267 180.697C341.37 184.73 342.239 188.712 343.835 192.452C345.572 196.521 348.132 200.219 351.366 203.338C354.599 206.457 358.442 208.936 362.672 210.639C366.902 212.342 371.441 213.237 376.029 213.275C380.617 213.313 385.169 212.493 389.427 210.86C393.685 209.226 397.568 206.811 400.852 203.745C404.136 200.68 406.757 197.024 408.561 192.985M344.275 177.655L408.561 192.985M344.275 177.655L376.301 177.918L409.48 177.565C411.115 177.547 412.622 178.906 412.464 180.742C412.093 185.043 409.958 189.853 408.561 192.985M344.275 177.655L406.734 192.169L408.561 192.985" fill="#28598C" stroke="white" stroke-width="4"/>
<path d="M399 294C397.343 294 395.99 295.345 396.099 296.998C396.472 302.67 397.903 308.254 400.339 313.517C403.203 319.704 407.402 325.327 412.695 330.062C417.988 334.798 424.271 338.555 431.187 341.118C438.103 343.681 445.515 345 453 345C460.485 345 467.897 343.681 474.813 341.118C481.729 338.555 488.012 334.798 493.305 330.062C498.598 325.327 502.797 319.704 505.661 313.517C508.097 308.254 509.528 302.67 509.901 296.998C510.01 295.345 508.657 294 507 294L453 294H399Z" fill="#26588D"/>
<path d="M415.48 206.007C410.766 212.081 406.642 215.743 402.379 218.039C398.122 220.332 393.568 221.347 387.833 221.88C385.768 222.072 384.359 224.361 385.507 226.336C388.241 231.039 392.128 235.355 397.527 238.296C402.936 241.241 409.736 242.737 418.176 241.992C430.758 240.882 436.803 233.308 440.097 227.63C441.136 225.84 440.069 223.828 438.45 223.239C435.927 222.321 432.699 220.238 429.423 217.244C426.17 214.271 422.978 210.498 420.488 206.32C419.407 204.507 416.803 204.301 415.48 206.007Z" fill="#28598C" stroke="white" stroke-width="4"/>
<path d="M360.162 221.758C349.262 218.43 340.849 208.941 336.462 203.266C336.011 202.683 335.108 202.758 334.745 203.399C332.146 207.991 325.781 216.792 309.002 220.771C308.457 220.9 308.105 221.449 308.268 221.984C311.89 233.849 328.097 240.163 336.876 239.994C345.668 239.826 358.815 233.816 360.863 222.863C360.955 222.372 360.64 221.904 360.162 221.758Z" fill="#28598C" stroke="white" stroke-width="4"/>
<path d="M492.52 206.007C497.234 212.081 501.358 215.743 505.621 218.039C509.878 220.332 514.432 221.347 520.167 221.88C522.232 222.072 523.641 224.361 522.493 226.336C519.759 231.039 515.872 235.355 510.473 238.296C505.064 241.241 498.264 242.737 489.824 241.992C477.242 240.882 471.197 233.308 467.903 227.63C466.864 225.84 467.931 223.828 469.55 223.239C472.073 222.321 475.301 220.238 478.577 217.244C481.83 214.271 485.022 210.498 487.512 206.32C488.593 204.507 491.197 204.301 492.52 206.007Z" fill="#28598C" stroke="white" stroke-width="4"/>
<path d="M547.838 221.758C558.738 218.43 567.151 208.941 571.538 203.266C571.989 202.683 572.889 202.759 573.244 203.405C575.751 207.975 581.681 216.704 598.242 220.71C598.875 220.863 599.216 221.568 598.909 222.143C591.388 236.213 579.909 240.163 571.124 239.994C562.332 239.826 549.185 233.816 547.137 222.863C547.045 222.372 547.36 221.904 547.838 221.758Z" fill="#28598C" stroke="white" stroke-width="4"/>
<path d="M410.5 633C392.9 647 374.833 645.167 368 642.5C368 657.5 388 671 409 667.5C425.8 664.7 431 653.333 431.5 648C425.1 648.4 414.833 638.167 410.5 633Z" stroke="black"/>
<path d="M310.5 566.5C294.5 575.5 279 583 273 586.5C273.667 590.333 278.3 598.5 291.5 600.5C308 603 335.5 584 330 581C325.6 578.6 315.667 570.5 310.5 566.5Z" stroke="black"/>
<path d="M405.5 604C378.5 604 357 593.5 349.5 589.5C344.5 595.5 344 618.5 368.5 624.5C393.026 630.506 405.167 612 405.5 604Z" stroke="black"/>
<path d="M596.815 566.208C613.022 574.829 628.695 581.962 634.775 585.32C634.199 589.168 629.759 597.441 616.61 599.751C600.174 602.639 572.234 584.292 577.662 581.163C582.004 578.66 591.744 570.329 596.815 566.208Z" stroke="black"/>
<path d="M501.144 603.5C528.144 603.679 549.713 593.323 557.24 589.373C562.199 595.406 562.546 618.409 538.007 624.245C513.442 630.089 501.424 611.502 501.144 603.5Z" stroke="black"/>
<mask id="path-54-inside-1_174_741" fill="white">
<path d="M481 605.5C481 609.111 480.289 612.687 478.907 616.024C477.525 619.36 475.499 622.392 472.945 624.945C470.392 627.499 467.36 629.525 464.024 630.907C460.687 632.289 457.111 633 453.5 633C449.889 633 446.313 632.289 442.976 630.907C439.64 629.525 436.608 627.499 434.055 624.945C431.501 622.392 429.475 619.36 428.093 616.024C426.711 612.687 426 609.111 426 605.5L453.5 605.5H481Z"/>
</mask>
<path d="M481 605.5C481 609.111 480.289 612.687 478.907 616.024C477.525 619.36 475.499 622.392 472.945 624.945C470.392 627.499 467.36 629.525 464.024 630.907C460.687 632.289 457.111 633 453.5 633C449.889 633 446.313 632.289 442.976 630.907C439.64 629.525 436.608 627.499 434.055 624.945C431.501 622.392 429.475 619.36 428.093 616.024C426.711 612.687 426 609.111 426 605.5L453.5 605.5H481Z" stroke="black" stroke-width="2" mask="url(#path-54-inside-1_174_741)"/>
<path d="M251.5 595C238.3 600.2 221.333 612.5 214.5 618C217.167 620.167 225.6 624.2 238 623C250.4 621.8 261.5 613.167 265.5 609C261.1 607.8 254.333 599.167 251.5 595Z" stroke="black"/>
<path d="M325 612.5C318.6 617.3 299.667 618.167 291 618C287.5 625 290 645.5 308 648C322.4 650 336 637.5 341 631C335 629.8 327.833 618.167 325 612.5Z" stroke="black"/>
<path d="M497 633C514.6 647 532.667 645.167 539.5 642.5C539.5 657.5 519.5 671 498.5 667.5C481.7 664.7 476.5 653.333 476 648C482.4 648.4 492.667 638.167 497 633Z" stroke="black"/>
<path d="M656 595C669.2 600.2 686.167 612.5 693 618C690.333 620.167 681.9 624.2 669.5 623C657.1 621.8 646 613.167 642 609C646.4 607.8 653.167 599.167 656 595Z" stroke="black"/>
<path d="M582.5 612.5C588.9 617.3 607.833 618.167 616.5 618C620 625 617.5 645.5 599.5 648C585.1 650 571.5 637.5 566.5 631C572.5 629.8 579.667 618.167 582.5 612.5Z" stroke="black"/>
<path d="M335.843 547.5C392.843 519 405.843 458.5 411.343 421.5C418.562 420.833 436.7 419.5 451.5 419.5C466.3 419.5 485.895 420.5 493.843 421C499.343 458 512.343 518.5 569.343 547C631.343 579.5 717.343 604 723.343 664.5V690H181.843V665C187.843 604.5 273.843 580 335.843 547.5Z" fill="white"/>
<path d="M423.343 601.5C376.943 601.5 323.343 576.166 302.343 563.5L269.843 545.5L177.343 585.5C172.009 589.5 169.143 602.7 200.343 623.5C231.543 644.3 259.676 630.166 269.843 620.5C266.843 630.333 274.343 652.486 298.843 657C329.243 662.6 345.843 647 350.343 638.5C350.676 652 366.843 679 398.343 679C433.843 679 450.009 657 452.343 646C456.676 659.833 482.843 684.119 509.343 679C543.843 672.335 553.676 649.166 553.843 638.5C562.343 651 577.843 662 608.343 656C632.743 651.2 636.176 630.333 634.843 620.5C669.243 646.5 700.509 628.666 711.843 616.5C700.343 597.5 676.543 560.9 673.343 566.5C670.143 572.1 642.343 555.333 629.843 556.5L571.843 581C539.043 602.6 459.176 603.666 423.343 601.5Z" fill="#27588D" stroke="#27588D"/>
<path d="M265 585C265 585 296.009 570.262 308 564.5C318.983 568 312.858 566.135 333.343 581.5C314.843 604 287.34 600.44 283.843 599C280.169 597.487 267.5 588 265 585Z" fill="#27588D" stroke="white" stroke-width="6"/>
<path d="M343.213 630.371L343.804 628.425L342.215 627.156C337.76 623.597 333.135 615.842 330.733 607.197L329.738 603.613L326.446 605.345C317.47 610.069 304.649 613.5 286.927 613.001L284.943 612.945L284.116 614.75C281.15 621.221 280.594 626.839 281.951 631.63C283.303 636.405 286.433 639.926 290.016 642.452C297.046 647.407 306.457 649 310.843 649C318.106 649 325.285 647.044 331.068 643.822C336.794 640.631 341.51 635.984 343.213 630.371Z" fill="#28598C" stroke="white" stroke-width="6"/>
<path d="M209 619C239 635.5 267.343 616.5 272.343 607L267.343 602.5L263.343 598L255.343 588.5C247 592.5 224 604.5 209 619Z" fill="#28588C" stroke="white" stroke-width="5"/>
<path d="M365.325 638.539L361.481 637.913L361.856 641.789C362.744 650.962 370.135 658.394 378.078 663.302C386.059 668.234 395.618 671.261 402.404 671C408.691 670.987 416.642 668.965 423.443 665.334C430.201 661.725 436.468 656.167 438.26 648.7L438.875 646.135L436.411 645.197C431.452 643.308 427.792 641.115 424.552 638.159C421.275 635.169 418.316 631.299 414.873 625.889L412.668 622.423L410.038 625.579C403.3 633.665 385.911 641.89 365.325 638.539Z" fill="#27588D" stroke="white" stroke-width="6"/>
<path d="M482.843 605.5V602.84L480.202 602.521C456.698 599.685 433.635 601.334 424.935 602.528L422.202 602.903L422.347 605.658L425.343 605.5C422.347 605.658 422.347 605.659 422.347 605.661L422.347 605.664L422.348 605.674L422.349 605.7C422.35 605.721 422.352 605.75 422.354 605.784C422.359 605.854 422.366 605.949 422.376 606.07C422.397 606.311 422.429 606.652 422.48 607.078C422.582 607.928 422.757 609.123 423.055 610.545C423.647 613.373 424.74 617.178 426.756 620.97C428.775 624.769 431.765 628.637 436.177 631.445C440.62 634.273 446.316 635.903 453.512 635.495C465.03 634.843 472.483 629.751 476.98 623.487C481.384 617.351 482.843 610.259 482.843 605.5Z" fill="#27588D" stroke="white" stroke-width="6"/>
<path d="M408.842 603.5V600.693L406.042 600.507C383.969 599.035 359.938 590.659 350.386 584.928L347.665 583.295L346.188 586.103C343.369 591.458 341.829 599.594 344.363 607.435C346.962 615.477 353.694 622.751 366.525 626.386C379.429 630.043 389.992 627.104 397.334 621.867C400.975 619.271 403.814 616.118 405.759 612.946C407.676 609.821 408.842 606.478 408.842 603.5Z" fill="#27588D" stroke="white" stroke-width="6"/>
<path d="M640 585C640 585 612 570.5 599.5 565C588.517 568.5 592.327 567.135 571.843 582.5C590.343 605 617.845 601.44 621.343 600C625.016 598.487 636 590.5 640 585Z" fill="#27588D" stroke="white" stroke-width="6"/>
<path d="M561.972 631.371L561.381 629.425L562.97 628.156C567.425 624.597 572.05 616.842 574.452 608.197L575.447 604.613L578.739 606.345C587.715 611.069 600.536 614.5 618.258 614.001L620.242 613.945L621.069 615.75C624.035 622.221 624.591 627.839 623.234 632.63C621.882 637.405 618.752 640.926 615.169 643.452C608.139 648.407 598.728 650 594.342 650C587.079 650 579.9 648.044 574.117 644.822C568.391 641.631 563.675 636.984 561.972 631.371Z" fill="#28598C" stroke="white" stroke-width="6"/>
<path d="M696.5 620C664.5 636 637.843 617.5 632.843 608L637.843 603.5L641.843 599L649.843 589.5C655 592.5 681.5 605.5 696.5 620Z" fill="#28588C" stroke="white" stroke-width="5"/>
<path d="M539.861 639.539L543.704 638.913L543.329 642.789C542.441 651.962 535.05 659.394 527.107 664.302C519.126 669.234 509.567 672.261 502.781 672C496.494 671.987 488.543 669.965 481.742 666.334C474.984 662.725 468.717 657.167 466.925 649.7L466.31 647.135L468.775 646.197C473.733 644.308 477.393 642.115 480.633 639.159C483.91 636.169 486.869 632.299 490.312 626.889L492.517 623.423L495.147 626.579C501.885 634.665 519.274 642.89 539.861 639.539Z" fill="#27588D" stroke="white" stroke-width="6"/>
<path d="M496.343 604.5V601.693L499.143 601.507C521.216 600.035 545.247 591.659 554.799 585.928L557.52 584.295L558.997 587.103C561.816 592.458 563.356 600.594 560.822 608.435C558.224 616.477 551.491 623.751 538.66 627.386C525.756 631.043 515.193 628.104 507.851 622.867C504.211 620.271 501.371 617.118 499.426 613.946C497.509 610.821 496.343 607.478 496.343 604.5Z" fill="#27588D" stroke="white" stroke-width="6"/>
</svg>
